<?xml version="1.0" encoding="UTF-8" standalone="no"?>
<!-- Created with Inkscape (http://www.inkscape.org/) -->

<svg
   xmlns:dc="http://purl.org/dc/elements/1.1/"
   xmlns:cc="http://creativecommons.org/ns#"
   xmlns:rdf="http://www.w3.org/1999/02/22-rdf-syntax-ns#"
   xmlns:svg="http://www.w3.org/2000/svg"
   xmlns="http://www.w3.org/2000/svg"
   xmlns:sodipodi="http://sodipodi.sourceforge.net/DTD/sodipodi-0.dtd"
   xmlns:inkscape="http://www.inkscape.org/namespaces/inkscape"
   width="140.07054mm"
   height="144.5173mm"
   viewBox="0 0 140.07054 144.5173"
   version="1.1"
   id="svg8"
   inkscape:version="0.92.3 (2405546, 2018-03-11)"
   sodipodi:docname="logo.svg">
  <defs
     id="defs2" />
  <sodipodi:namedview
     id="base"
     pagecolor="#ffffff"
     bordercolor="#666666"
     borderopacity="1.0"
     inkscape:pageopacity="0.0"
     inkscape:pageshadow="2"
     inkscape:zoom="0.35"
     inkscape:cx="-345.29976"
     inkscape:cy="4.5321333"
     inkscape:document-units="mm"
     inkscape:current-layer="layer2"
     showgrid="false"
     showguides="false"
     inkscape:window-width="1847"
     inkscape:window-height="1014"
     inkscape:window-x="73"
     inkscape:window-y="38"
     inkscape:window-maximized="1" />
  <metadata
     id="metadata5">
    <rdf:RDF>
      <cc:Work
         rdf:about="">
        <dc:format>image/svg+xml</dc:format>
        <dc:type
           rdf:resource="http://purl.org/dc/dcmitype/StillImage" />
        <dc:title />
      </cc:Work>
    </rdf:RDF>
  </metadata>
  <g
     inkscape:label="Layer 1"
     inkscape:groupmode="layer"
     id="layer1"
     style="opacity:0"
     transform="translate(-28.238539,-65.99135)" />
  <g
     inkscape:groupmode="layer"
     id="layer2"
     inkscape:label="Layer 2"
     style="opacity:1"
     transform="translate(-28.238539,-65.99135)">
    <g
       id="g3994"
       transform="matrix(0.99949639,0,0,0.96874215,0.01422123,6.5800478)">
      <path
         style="stroke-width:0.26458332"
         inkscape:connector-curvature="0"
         d="m 105.12413,100.04029 c -0.079,3.26363 -0.0599,6.52886 -0.0562,9.79321 0.0133,3.40045 0.002,6.80084 -0.0109,10.20127 -0.0498,5.12543 -0.0496,10.25127 -0.0584,15.37694 -0.10203,5.48789 0.23112,10.96706 0.44155,16.44822 0.19446,5.27157 0.29247,10.54618 0.32368,15.82108 0.0281,5.58805 -0.10557,11.17756 0.0864,16.76326 0.14048,4.8024 0.5439,9.5859 0.93311,14.37213 0.11599,2.20134 0.34725,4.39388 0.56755,6.58643 0,0 -9.782326,5.10582 -9.782326,5.10582 v 0 c -0.212058,-2.20121 -0.460012,-4.40047 -0.565441,-6.61035 -0.377632,-4.81094 -0.769091,-9.6171 -0.905222,-14.44336 -0.186113,-5.5901 -0.02011,-11.18654 -0.122597,-16.77898 -0.03254,-5.27196 -0.05593,-10.54496 -0.257458,-15.81389 -0.222586,-5.49274 -0.602118,-10.98188 -0.469164,-16.48255 -0.0088,-5.10582 -0.0084,-10.21183 -0.05839,-15.31744 -0.01286,-3.39674 -0.02408,-6.79345 -0.01085,-10.19022 0.0036,-3.24525 0.02334,-6.49141 -0.05621,-9.73592 0,0 10.000768,-5.09565 10.000768,-5.09565 z"
         id="path3730" />
      <path
         style="stroke-width:0.26458332"
         inkscape:connector-curvature="0"
         d="m 119.48153,101.64553 c -0.11999,4.57316 -0.10096,9.14899 -0.11101,13.72344 0.0229,5.61609 -0.11026,11.23427 0.0824,16.84797 0.45281,5.11814 0.93644,10.22989 1.20712,15.36196 0.37782,4.58186 1.02393,9.13953 1.60025,13.70057 0.68263,4.39103 1.18946,8.80706 1.89196,13.19481 0.85026,4.27053 1.92434,8.50124 3.05993,12.70504 0.94435,4.10286 2.06032,8.15598 3.46251,12.12582 0.20414,0.60033 0.40828,1.20065 0.61242,1.80098 0,0 -9.69686,5.34226 -9.69686,5.34226 v 0 c -0.19712,-0.5978 -0.39424,-1.19561 -0.59135,-1.79341 -1.40216,-3.99977 -2.54735,-8.07582 -3.47843,-12.21157 -1.14085,-4.24041 -2.23457,-8.5025 -3.12241,-12.80252 -0.70446,-4.40324 -1.19818,-8.83558 -1.88056,-13.2423 -0.57722,-4.58889 -1.26176,-9.17054 -1.62422,-13.78182 -0.24153,-5.14275 -0.69732,-10.26542 -1.19175,-15.38935 -0.19002,-5.62432 -0.0307,-11.25489 -0.0984,-16.88172 -0.01,-4.53673 0.01,-9.07492 -0.11101,-13.61033 0,0 9.98937,-5.08983 9.98937,-5.08983 z"
         id="path3732" />
      <path
         style="stroke-width:0.26458332"
         inkscape:connector-curvature="0"
         d="m 28.238539,102.5134 c 3.431609,-4.477129 7.127693,-8.786909 11.301,-12.595649 1.225301,-1.11826 2.521876,-2.15583 3.782814,-3.23375 6.939179,-5.19388 14.634998,-9.36785 22.382321,-13.20752 1.651519,-0.81851 3.445071,-1.31411 5.189114,-1.91059 4.840499,-1.65549 5.508014,-1.71713 10.484205,-2.98068 11.965204,-2.64252 24.215987,-2.83134 36.401777,-2.43592 7.38667,0.48269 14.80485,0.53073 22.18492,1.12225 3.7082,0.29722 5.65539,0.59842 9.31546,1.07865 6.49709,0.83278 12.81981,2.56227 19.02893,4.59864 0,0 -8.96583,6.09023 -8.96583,6.09023 v 0 c -6.13563,-2.0053 -12.38069,-3.67911 -18.79589,-4.51611 -10.37242,-1.35343 -20.813,-1.78601 -31.25797,-2.24638 -12.16022,-0.38246 -24.391322,-0.0518 -36.296117,2.73221 -4.560904,1.2111 -5.981594,1.48527 -10.409576,3.06702 -1.737868,0.6208 -3.930669,3.38556 -5.159113,2.00842 -1.162106,-1.30276 4.527716,-1.17509 4.353017,-2.91208 -0.340675,-3.38728 -8.559533,8.50274 -8.591275,5.52244 -1.254461,1.04818 -2.546792,2.05263 -3.763383,3.14454 -4.067177,3.65035 -7.709013,7.79876 -10.888411,12.23736 0,0 -10.295993,4.436919 -10.295993,4.436919 z"
         id="path3761" />
    </g>
  </g>
</svg>
